/* XPM */
static char *_afd8cefae254571c565ce95f3add429[] = {
/* columns rows colors chars-per-pixel */
"16 16 2 1 ",
"  c #29ABE2",
". c None",
/* pixels */
"................",
".....      .....",
".....  ..  .....",
"...  ......  ...",
"...    ..    ...",
"..  ..    ..  ..",
"..  ...  ...  ..",
"..  .  ..  .  ..",
"... .  ..  . ...",
"...   ....   ...",
".... ...... ....",
"......    ......",
"................",
" . . .... ...  .",
"   ...    . ..  ",
"................"
};
