/* XPM */
static char *fdf7aeb2fc5e415997f52fbf4a79d2d9[] = {
/* columns rows colors chars-per-pixel */
"128 128 2 1 ",
"  c #29ABE2",
". c None",
/* pixels */
"................................................................................................................................",
"................................................................................................................................",
"................................................................................................................................",
"................................................................................................................................",
"................................................................................................................................",
"................................................................................................................................",
".........................................................              .........................................................",
".....................................................                      .....................................................",
".................................................                              .................................................",
"...............................................                                  ...............................................",
".............................................                                      .............................................",
"...........................................                                          ...........................................",
".........................................                                              .........................................",
".......................................                                                  .......................................",
"......................................                                                    ......................................",
".......................................                                                   ......................................",
"........................................                  ............                  ........................................",
"..........................................            ....................             .........................................",
"...........................................        ..........................         ..........................................",
"................................   .........     ..............................      ........   ................................",
"...............................     .........  ..................................   ........     ...............................",
"...............................      ......................................................      ...............................",
"..............................        ....................................................        ..............................",
".............................          ..................................................          .............................",
"............................             ..............................................             ............................",
"...........................               ............................................               ...........................",
"...........................                ..........................................                ...........................",
"..........................                  ........................................                  ..........................",
"..........................                    ....................................                    ..........................",
".........................                      ..................................                      .........................",
".........................                       ................................                       .........................",
"........................                         ..............................                         ........................",
"........................                           ..........................                           ........................",
".......................           ..                ........................                ..           .......................",
".......................           ...                ......................                ...           .......................",
"......................           .....                ....................                .....           ......................",
"......................           ......                ..................                ......           ......................",
"......................          .........                ..............                .........          ......................",
"......................          ..........                ............                ..........          ......................",
".....................           ...........                ..........                ...........           .....................",
".....................          .............                ........                .............          .....................",
".....................          ..............                 ....                ...............          .....................",
".....................          ................                ..                ................          .....................",
"....................          ..................                                ..................          ....................",
"....................          ...................                              ...................          ....................",
"....................          ....................                            ....................          ....................",
"....................          ......................                        ......................          ....................",
"....................          .......................                      .......................          ....................",
"....................          .............. .........                    ......... ..............          ....................",
"....................          ..............  .........                  .........  ..............          ....................",
"....................          ..............   ..........              ..........   ..............          ....................",
"....................          ..............     .........            .........     ..............          ....................",
"....................          ..............      .........          .........      ..............          ....................",
"....................          ..............       .........        .........       ..............          ....................",
"....................          ..............        .........      .........        ..............          ....................",
"....................          ..............          .........  .........          ..............          ....................",
"....................          ..............          ....................          ..............          ....................",
".....................          .............          ....................          .............          .....................",
".....................          .............          ....................          .............          .....................",
".....................          .............          ....................          .............          .....................",
".....................           ............          ....................          ............           .....................",
"......................          ............          ....................          ............          ......................",
"......................          ............          ....................          ............          ......................",
"......................           ...........          ....................          ...........           ......................",
"......................           ...........          ....................          ...........           ......................",
".......................           ..........          ....................          ..........           .......................",
".......................           ..........          ....................          ..........           .......................",
"........................           .........          ....................          .........           ........................",
"........................           ........           ....................           ........           ........................",
".........................           .....             ....................             .....           .........................",
".........................            ..               ....................               ..            .........................",
"..........................                            ....................                            ..........................",
"..........................                            ....................                            ..........................",
"...........................                           ....................                           ...........................",
"...........................                          ......................                          ...........................",
"............................                       ..........................                       ............................",
".............................                    ..............................                    .............................",
"..............................                 ..................................                 ..............................",
"..............................               ......................................               ..............................",
"...............................            ..........................................            ...............................",
"................................          ............................................          ................................",
".................................       ................................................       .................................",
"..................................    .............   ....................   .............    ..................................",
"................................... .............        ..............        ............. ...................................",
"...............................................                                  ...............................................",
".............................................                                      .............................................",
"............................................                                        ............................................",
"..........................................                                            ..........................................",
"...........................................                                          ...........................................",
".............................................                                      .............................................",
"...............................................                                  ...............................................",
".................................................                              .................................................",
".....................................................                      .....................................................",
".........................................................              .........................................................",
"................................................................................................................................",
"................................................................................................................................",
"................................................................................................................................",
"................................................................................................................................",
"................................................................................................................................",
"................................................................................................................................",
"................................................................................................................................",
"................................................................................................................................",
"................................................................................................................................",
"      .........              ....       ................    .........    ...   ..........   .........      .....    ........    ",
"       .......               ....            ...........     ........    ..     ........     ......          ..      .......    ",
"       .......               ....              ........      ........    ..     ........     ....             .      .......    ",
"       .......               ....               .......       .......    ..     ........     ...                      ......    ",
"        .....         ...........    ....        .....        .......    ..     ........     ...      ....             .....    ",
"        .....        ............    .......     .....         ......    ..     ........     ..     ........           .....    ",
"         ....        ............    .......      ....    .    ......    ..     ........     ..    ..........           ....    ",
"    .    ...          ...........    ........     ...    ..    ......    ..     ........     .     ..........            ...    ",
"    .    ...    .            ....    ........     ...    ..     .....    ..     ........     .    ............     ..    ...    ",
"    ..    ..   ..            ....    ........     ..     ...    .....    ..     ........     .    ............     ..     ..    ",
"    ..    .    ..            ....    ........     ..    ....     ....    ..     ........     .    ............     ...    ..    ",
"    ..    .    ..     ...........    ........     ..    ....     ....    ..     ........     .    ...........      ...     .    ",
"    ...       ...    ............    ........     .     .....     ...    ..     ........     ..    ..........      ....         ",
"    ...       ...    ............    .......     ..    ......     ...    ..     ........     ..     ........       ....         ",
"    ...       ...    ............    ......      .     ..............    ..     ........     ..      ......        .....        ",
"    ....     ....             ...               ..     ...               ..            .     ...       ..          ......       ",
"    ....     ....             ...              ..     ....               ..            .     ....                  ......       ",
"    ....     ....             ...             ...     ....               ..            .     .....            .     ......      ",
"    .....   .....             ...          ......    .....               ..            .     .......        ...    ........     ",
"......................................................................................................    ......................",
"................................................................................................................................",
"................................................................................................................................",
"................................................................................................................................",
"................................................................................................................................",
"................................................................................................................................"
};
