/* XPM */
static char *_70e65c99155494fa47b24e7df0e6008[] = {
/* columns rows colors chars-per-pixel */
"48 48 2 1 ",
"  c #29ABE2",
". c None",
/* pixels */
"................................................",
"................................................",
"......................     .....................",
"..................            ..................",
"................                ................",
"...............                   ..............",
"...............      ......      ...............",
"............ .... ............  ... ............",
"...........   ....................   ...........",
"..........      .................     ..........",
"..........       ..............       ..........",
".........         ............         .........",
".........          ..........          .........",
"........    ..      ........      ..    ........",
"........    ....      ....      ....    ........",
"........    .....      ..      .....    ........",
"........   .......            .......   ........",
"........   ........          ........   ........",
".......    ..........      ..........    .......",
".......    ...... ....    ....  .....    .......",
"........   ......   ...  ...   ......   ........",
"........    .....   ........   ......   ........",
"........    .....   ........   .....    ........",
"........    .....   ........   .....    ........",
".........    ....   ........   .....    ........",
".........    ...    ........    ...    .........",
".........     .     ........     .     .........",
"..........          ........          ..........",
"...........        ..........        ...........",
"...........      ..............      ...........",
"............   ..................   ............",
"..................    ....    ..................",
"................                ................",
"................                ................",
"...................          ...................",
"................................................",
"................................................",
"................................................",
"................................................",
"   ..      ..    ....  ... .  ...  ..       ..  ",
"   ..   ....      ..   ... .  ...  .  ..     .  ",
"   ..   ....  ...  .    .. .  ...    ....    .. ",
"           .  ...  . .. .. .  ...    ....  .    ",
" ..  .  ....  ...    .. .. .  ...  . ....  ..   ",
"  .  .     .      . ..     .       .       ..   ",
"  .  .     ..    .. ..     ..      ..    . ...  ",
"................................................",
"................................................"
};
