/* XPM */
static char *_496edb3488f4249a3158067fd5f57c0[] = {
/* columns rows colors chars-per-pixel */
"32 32 2 1 ",
"  c #29ABE2",
". c None",
/* pixels */
"................................",
"................................",
"...........          ...........",
"..........            ..........",
"..........   ......   ..........",
".......  ..............  .......",
".......    ..........    .......",
"......      ........      ......",
"......       ......       ......",
".....   ..    ....    ..   .....",
".....   ...    ..   ....   .....",
".....   .....      .....   .....",
".....  .... ..    .. ....  .....",
".....  ....  ..  ..  ....  .....",
".....   ...   ....   ...   .....",
".....   ...   ....   ...   .....",
"......  ...   ....   ...  ......",
"......   .    ....    .   ......",
".......      ......      .......",
".......     ........     .......",
"........  ............  ........",
"...........          ...........",
"...........          ...........",
"...............  ...............",
"................................",
"................................",
"  ..   .    .. ..   .. .     .. ",
"  .   .. .. ..  .   ..   ..   . ",
"       . ..   . .   ..   ..     ",
" . .  ..      .      . .     .  ",
".....  ..  ....   .   ...  .... ",
"................................"
};
