<?xml version="1.0" encoding="utf-8"?>
<!-- Generator: Adobe Illustrator 19.0.0, SVG Export Plug-In . SVG Version: 6.00 Build 0)  -->
<svg version="1.1"
	 id="svg2" xmlns:dc="http://purl.org/dc/elements/1.1/" xmlns:cc="http://creativecommons.org/ns#" xmlns:rdf="http://www.w3.org/1999/02/22-rdf-syntax-ns#" xmlns:inkscape="http://www.inkscape.org/namespaces/inkscape" xmlns:sodipodi="http://sodipodi.sourceforge.net/DTD/sodipodi-0.dtd" xmlns:svg="http://www.w3.org/2000/svg" inkscape:version="0.48.2 r9819" sodipodi:docname="bitcoin-logo-noshadow.svg"
	 xmlns="http://www.w3.org/2000/svg" xmlns:xlink="http://www.w3.org/1999/xlink" x="0px" y="0px" viewBox="206 -116 1024 1024"
	 style="enable-background:new 206 -116 1024 1024;" xml:space="preserve">
<style type="text/css">
	.st0{display:none;}
	.st1{display:inline;fill:#FFFFFF;}
	.st2{display:inline;}
	.st3{fill:url(#SVGID_1_);}
	.st4{fill:url(#SVGID_2_);}
	.st5{display:inline;fill:url(#SVGID_3_);}
	.st6{fill:#29ABE2;}
</style>
<g class="st0">
	<circle class="st1" cx="1712.2" cy="-219.8" r="353.1"/>
	<g class="st2">
		
			<radialGradient id="SVGID_1_" cx="2049.3567" cy="-197.7809" r="34.4319" gradientTransform="matrix(1.7655 0 0 1.7655 -1866.2954 26.0413)" gradientUnits="userSpaceOnUse">
			<stop  offset="0" style="stop-color:#F9AA4B"/>
			<stop  offset="1" style="stop-color:#F7931A"/>
		</radialGradient>
		<path class="st3" d="M1711.6-361.7l-24.7,99c28,7,114.3,35.4,128.3-20.6C1829.8-341.7,1739.6-354.7,1711.6-361.7z"/>
	</g>
	<g class="st2">
		
			<radialGradient id="SVGID_2_" cx="2033.8148" cy="-109.6548" r="39.858" gradientTransform="matrix(1.7655 0 0 1.7655 -1866.2954 26.0413)" gradientUnits="userSpaceOnUse">
			<stop  offset="0" style="stop-color:#F9AA4B"/>
			<stop  offset="1" style="stop-color:#F7931A"/>
		</radialGradient>
		<path class="st4" d="M1674.5-212.7l-27.2,109.2c33.6,8.3,137.3,41.6,152.6-19.9C1815.9-187.7,1708.1-204.3,1674.5-212.7z"/>
	</g>
	
		<radialGradient id="SVGID_3_" cx="2027.8665" cy="-138.2561" r="255.9973" gradientTransform="matrix(1.7655 0 0 1.7655 -1866.2954 26.0413)" gradientUnits="userSpaceOnUse">
		<stop  offset="0" style="stop-color:#F9AA4B"/>
		<stop  offset="1" style="stop-color:#F7931A"/>
	</radialGradient>
	<path class="st5" d="M1823.2-656.5c-242.1-60.4-487.3,87-547.7,329.2c-60.4,242.1,87,487.4,329,547.7
		c242.2,60.4,487.4-87,547.8-329.1S2065.4-596.1,1823.2-656.5z M1913.2-282.4c-6.5,44-30.9,65.3-63.3,72.8
		c44.5,23.2,67.1,58.7,45.6,120.3c-26.8,76.5-90.4,82.9-174.9,66.9L1700,59.9l-49.6-12.4l20.3-81.1c-12.9-3.2-26-6.6-39.5-10.3
		l-20.3,81.5l-49.5-12.4l20.5-82.4c-11.6-3-23.3-6.1-35.4-9.1L1482-82.4l24.6-56.8c0,0,36.5,9.7,36,9c14,3.5,20.3-5.7,22.7-11.8
		l32.4-130l0.1-0.4l23.1-92.8c0.6-10.5-3-23.8-23.1-28.8c0.8-0.5-36-9-36-9l13.2-53l68.4,17.1l-0.1,0.3c10.3,2.6,20.9,5,31.7,7.4
		l20.3-81.4l49.6,12.4l-19.9,79.9c13.3,3,26.7,6.1,39.7,9.4l19.8-79.3l49.6,12.4l-20.3,81.5C1876.4-374.9,1922.2-342.5,1913.2-282.4
		z"/>
</g>
<polygon class="st6" points="378.4,809.7 379.1,713.3 378.6,713.3 343.2,809.7 320.1,809.7 285.6,713.3 285.1,713.3 285.8,809.7 
	254.9,809.7 254.9,673.5 301.6,673.5 332.6,760.8 333.4,760.8 363,673.5 410.5,673.5 410.5,809.7 "/>
<polygon class="st6" points="378.3,809.7 378.3,673.5 469.9,673.5 469.9,701.4 410.1,701.4 410.1,727 466.6,727 466.6,753.3 
	410.1,753.3 410.1,781.6 473.4,781.6 473.4,809.7 "/>
<path class="st6" d="M545.9,809.7h-50.8V673.5h49.3c38.7,0,77.9,16.2,77.9,67.7C622.3,789.1,583.4,809.7,545.9,809.7 M543.6,701.6
	h-16.4v79.6h15.6c23.5,0,45.2-9.6,45.2-40C588,710.6,566.3,701.6,543.6,701.6"/>
<polygon class="st6" points="740.1,773.3 698.6,673.5 666.6,673.5 609.5,809.7 645.3,809.7 682,709.8 703.5,773.3 "/>
<polygon class="st6" points="677.9,809.7 677.9,781 758.9,781 758.9,673.5 792,673.5 792,809.7 "/>
<polygon class="st6" points="807.4,809.7 807.4,673.5 840.5,673.5 840.5,781 893.2,781 893.2,809.7 "/>
<rect x="901.1" y="673.5" class="st6" width="33.1" height="136.2"/>
<polygon class="st6" points="1156.7,809.7 1101.9,720.6 1101.3,720.6 1102.1,809.7 1070.2,809.7 1070.2,673.5 1107.7,673.5 
	1162.3,762.4 1162.9,762.4 1162.1,673.5 1194.1,673.5 1194.1,809.7 "/>
<path class="st6" d="M1017.3,669.8c-39.5,0-71.7,32.1-71.7,71.7c0,39.5,32.1,71.7,71.7,71.7c39.5,0,71.7-32.1,71.7-71.7
	C1088.9,702,1056.8,669.8,1017.3,669.8 M1017.3,784.2c-23.6,0-42.7-19.1-42.7-42.7c0-23.6,19.1-42.7,42.7-42.7
	c23.6,0,42.7,19.1,42.7,42.7C1060,765.1,1040.9,784.2,1017.3,784.2"/>
<path class="st6" d="M950.8,72.8l0.2-1.3l-0.8,0.7c-0.2-0.2-0.4-0.4-0.6-0.7l-53.5,44c0.1,0.1,0.1,0.1,0.2,0.2L735,246l-162-131
	l-52.7-43.4c-0.1,0.1-0.3,0.3-0.4,0.4l-0.8-0.7l0.2,1.3c-56.8,55.9-92.1,133.5-92.1,219.3c0,94.8,43.1,179.6,110.6,236.1l52.5-29.4
	l75.8-41.4V333.4l-68.9-55.1v136.9l-48.4,26.4c-33-40.9-52.7-92.9-52.7-149.6c0-44.4,12.2-85.8,33.2-121.4L735,337.9l205.3-168
	c21.3,35.7,33.6,77.4,33.6,122.1c0,56.7-19.8,108.7-52.7,149.6l-48.4-26.4V278.2l-68.9,55.1v124.1l75.8,41.4l52.5,29.4
	c67.5-56.5,110.6-141.4,110.6-236.1C1042.9,206.2,1007.5,128.6,950.8,72.8"/>
<path class="st6" d="M735,53c47.7,0,92.1,14,129.4,38.1l55.2-45.4C868.1,7.1,804.2-15.9,735-15.9c-68.1,0-131.1,22.3-182.2,59.9
	l55.3,45.5C644.9,66.4,688.3,53,735,53"/>
<path class="st6" d="M735,531c-29.9,0-58.4-5.5-84.8-15.5l-73,40.8c46.2,27.7,100.2,43.6,157.8,43.6c57.7,0,111.6-16,157.8-43.6
	l-73-40.8C793.4,525.4,764.8,531,735,531"/>
</svg>
